<?xml version="1.0" encoding="utf-8"?>
<!-- Generator: Adobe Illustrator 26.4.1, SVG Export Plug-In . SVG Version: 6.00 Build 0)  -->
<svg version="1.1" id="レイヤー_1" xmlns="http://www.w3.org/2000/svg" xmlns:xlink="http://www.w3.org/1999/xlink" x="0px"
	 y="0px" viewBox="0 0 500 500" style="enable-background:new 0 0 500 500;" xml:space="preserve">
<style type="text/css">
	<!-- .st0{fill:#05C0FF;}
	.st1{fill:#0070D9;} -->
</style>
<g id="a">
</g>
<g id="b">
	<g id="c">
		<g>
			<g id="d">
				<g>
					<g id="e">
						<g id="f">
							<g id="g">
								<g>
									<path id="h" class="st0" d="M258.6,106.6l41.7-41.5c2.9-2.9,7.6-2.9,10.5,0l41.5,41.7c2.9,2.9,2.9,7.6,0,10.5l-41.7,41.5
										c-2.9,2.9-7.6,2.9-10.5,0l-41.5-41.7C255.7,114.2,255.7,109.5,258.6,106.6z"/>
									<path id="i" class="st0" d="M203.3,161.8l41.7-41.5c2.9-2.9,7.6-2.9,10.5,0L297,162c2.9,2.9,2.9,7.6,0,10.5L255.3,214
										c-2.9,2.9-7.6,2.9-10.5,0l-41.5-41.7C200.4,169.4,200.4,164.7,203.3,161.8z"/>
									<path id="j" class="st1" d="M258.4,217.1l41.7-41.5c2.9-2.9,7.6-2.9,10.5,0l41.5,41.7c2.9,2.9,2.9,7.6,0,10.5l-41.7,41.6
										c-2.9,2.9-7.6,2.9-10.5,0l-41.5-41.7C255.5,224.7,255.5,220,258.4,217.1z"/>
									<path id="k" class="st0" d="M148,216.9l41.7-41.5c2.9-2.9,7.6-2.9,10.5,0l41.5,41.7c2.9,2.9,2.9,7.6,0,10.5L200,269.1
										c-2.9,2.9-7.6,2.9-10.5,0L148,227.4C145,224.5,145,219.8,148,216.9z"/>
									<path id="l" class="st0" d="M92.6,272l41.7-41.5c2.9-2.9,7.6-2.9,10.5,0l41.5,41.7c2.9,2.9,2.9,7.6,0,10.5l-41.7,41.5
										c-2.9,2.9-7.6,2.9-10.5,0l-41.5-41.7C89.6,279.6,89.7,274.9,92.6,272z"/>
									<path id="m" class="st0" d="M92.8,161.5l41.7-41.5c2.9-2.9,7.6-2.9,10.5,0l41.5,41.7c2.9,2.9,2.9,7.6,0,10.5l-41.7,41.5
										c-2.9,2.9-7.6,2.9-10.5,0L92.8,172C89.9,169.1,89.9,164.4,92.8,161.5z"/>
									<path id="n" class="st1" d="M202.8,382.7l41.7-41.5c2.9-2.9,7.6-2.9,10.5,0l41.5,41.7c2.9,2.9,2.9,7.6,0,10.5l-41.7,41.5
										c-2.9,2.9-7.6,2.9-10.5,0l-41.5-41.7C199.9,390.3,199.9,385.6,202.8,382.7z"/>
									<path id="o" class="st1" d="M368.9,217.3l41.7-41.5c2.9-2.9,7.6-2.9,10.5,0l41.5,41.7c2.9,2.9,2.9,7.6,0,10.5l-41.7,41.5
										c-2.9,2.9-7.6,2.9-10.5,0l-41.5-41.7C365.9,224.9,366,220.2,368.9,217.3z"/>
									<path id="p" class="st1" d="M203,272.2l41.7-41.5c2.9-2.9,7.6-2.9,10.5,0l41.5,41.7c2.9,2.9,2.9,7.6,0,10.5L255,324.4
										c-2.9,2.9-7.6,2.9-10.5,0L203,282.7C200.1,279.8,200.1,275.1,203,272.2z"/>
								</g>
							</g>
						</g>
					</g>
					<path id="q" class="st0" d="M37.5,216.9l41.7-41.5c2.9-2.9,7.6-2.9,10.5,0l41.5,41.7c2.9,2.9,2.9,7.6,0,10.5l-41.7,41.5
						c-2.9,2.9-7.6,2.9-10.5,0l-41.5-41.7C34.5,224.5,34.5,219.8,37.5,216.9z"/>
				</g>
			</g>
		</g>
	</g>
</g>
</svg>
