<svg xmlns="http://www.w3.org/2000/svg" xmlns:xlink="http://www.w3.org/1999/xlink" width="200" zoomAndPan="magnify" viewBox="0 0 150 149.999998" height="200" preserveAspectRatio="xMidYMid meet" version="1.0"><defs><clipPath id="cf94d7cf8f"><path d="M 14.363281 17.320312 L 135.785156 17.320312 L 135.785156 86.398438 L 14.363281 86.398438 Z M 14.363281 17.320312 " clip-rule="nonzero"/></clipPath><clipPath id="5e265b0755"><path d="M 18.113281 17.320312 L 131.886719 17.320312 C 132.882812 17.320312 133.835938 17.714844 134.539062 18.417969 C 135.242188 19.125 135.636719 20.078125 135.636719 21.070312 L 135.636719 82.648438 C 135.636719 83.640625 135.242188 84.59375 134.539062 85.296875 C 133.835938 86 132.882812 86.398438 131.886719 86.398438 L 18.113281 86.398438 C 17.117188 86.398438 16.164062 86 15.460938 85.296875 C 14.757812 84.59375 14.363281 83.640625 14.363281 82.648438 L 14.363281 21.070312 C 14.363281 20.078125 14.757812 19.125 15.460938 18.417969 C 16.164062 17.714844 17.117188 17.320312 18.113281 17.320312 Z M 18.113281 17.320312 " clip-rule="nonzero"/></clipPath><clipPath id="7aa3b8f406"><path d="M 31.242188 100.140625 L 65.9375 100.140625 L 65.9375 132.679688 L 31.242188 132.679688 Z M 31.242188 100.140625 " clip-rule="nonzero"/></clipPath><clipPath id="5748f949e0"><path d="M 34.992188 100.140625 L 62.117188 100.140625 C 63.109375 100.140625 64.0625 100.535156 64.765625 101.242188 C 65.46875 101.945312 65.867188 102.898438 65.867188 103.890625 L 65.867188 128.929688 C 65.867188 129.921875 65.46875 130.875 64.765625 131.582031 C 64.0625 132.285156 63.109375 132.679688 62.117188 132.679688 L 34.992188 132.679688 C 33.996094 132.679688 33.042969 132.285156 32.339844 131.582031 C 31.636719 130.875 31.242188 129.921875 31.242188 128.929688 L 31.242188 103.890625 C 31.242188 102.898438 31.636719 101.945312 32.339844 101.242188 C 33.042969 100.535156 33.996094 100.140625 34.992188 100.140625 Z M 34.992188 100.140625 " clip-rule="nonzero"/></clipPath></defs><g clip-path="url(#cf94d7cf8f)"><g clip-path="url(#5e265b0755)"><path fill="" d="M 14.363281 17.320312 L 135.515625 17.320312 L 135.515625 86.398438 L 14.363281 86.398438 Z M 14.363281 17.320312 " fill-opacity="1" fill-rule="nonzero"/></g></g><g clip-path="url(#7aa3b8f406)"><g clip-path="url(#5748f949e0)"><path fill="" d="M 31.242188 100.140625 L 65.8125 100.140625 L 65.8125 132.679688 L 31.242188 132.679688 Z M 31.242188 100.140625 " fill-opacity="1" fill-rule="nonzero"/></g></g></svg>